<?xml version="1.0" encoding="UTF-8" standalone="no"?>
<!-- Generator: Adobe Illustrator 22.0.1, SVG Export Plug-In . SVG Version: 6.00 Build 0)  -->

<svg
   xmlns:dc="http://purl.org/dc/elements/1.1/"
   xmlns:cc="http://creativecommons.org/ns#"
   xmlns:rdf="http://www.w3.org/1999/02/22-rdf-syntax-ns#"
   xmlns:svg="http://www.w3.org/2000/svg"
   xmlns="http://www.w3.org/2000/svg"
   xmlns:sodipodi="http://sodipodi.sourceforge.net/DTD/sodipodi-0.dtd"
   xmlns:inkscape="http://www.inkscape.org/namespaces/inkscape"
   version="1.1"
   x="0px"
   y="0px"
   viewBox="0 0 845.79996 596.3"
   xml:space="preserve"
   id="svg266"
   sodipodi:docname="Presentation1.svg"
   width="845.79999"
   height="596.29999"
   inkscape:version="0.92.2 5c3e80d, 2017-08-06"><metadata
     id="metadata272"><rdf:RDF><cc:Work
         rdf:about=""><dc:format>image/svg+xml</dc:format><dc:type
           rdf:resource="http://purl.org/dc/dcmitype/StillImage" /><dc:title /></cc:Work></rdf:RDF></metadata><defs
     id="defs270" /><sodipodi:namedview
     pagecolor="#ffffff"
     bordercolor="#666666"
     borderopacity="1"
     objecttolerance="10"
     gridtolerance="10"
     guidetolerance="10"
     inkscape:pageopacity="0"
     inkscape:pageshadow="2"
     inkscape:window-width="1442"
     inkscape:window-height="785"
     id="namedview268"
     showgrid="false"
     inkscape:zoom="4.01626"
     inkscape:cx="681.58044"
     inkscape:cy="154.29229"
     inkscape:window-x="0"
     inkscape:window-y="1"
     inkscape:window-maximized="0"
     inkscape:current-layer="svg266" /><style
     type="text/css"
     id="style2">
	.st0{fill:#DAC19B;}
	.st1{fill:#32699B;}
	.st2{fill:#FFFFFF;}
	.st3{fill:#24A8E0;}
	.st4{fill:#EC4123;}
	.st5{fill:#ED1B23;}
	.st6{opacity:0.3;fill:#A7A9AC;}
	.st7{opacity:0.2;}
	.st8{fill:#7D5F39;}
	.st9{fill:#B08764;}
	.st10{fill:#FFCC3A;}
	.st11{fill:#939598;}
	.st12{fill:none;}
	.st13{fill:#58C2E8;}
	.st14{fill:#5C9742;}
	.st15{fill:#4F833E;}
	.st16{fill:#4D813D;}
	.st17{fill:#5B9943;}
	.st18{fill:#4B7A39;}
	.st19{fill:#9D1D23;}
	.st20{fill:#06A0C2;}
	.st21{fill:#EA3031;}
	.st22{fill:#493C22;}
	.st23{fill:#E7D9DF;}
	.st24{fill:#131821;}
	.st25{fill:#191D2C;}
	.st26{fill:#383D4A;}
	.st27{fill:#7B411A;}
	.st28{fill:#F7FCFE;}
	.st29{fill:#D1D3D4;}
	.st30{fill:#1475BB;}
	.st31{fill:#223E81;}
	.st32{fill:none;stroke:#C1A355;stroke-width:3;stroke-miterlimit:10;}
	.st33{fill:#C1A355;}
</style><g
     id="Layer_2"
     transform="translate(0.92905202,0.3152881)"><rect
       class="st0"
       width="841.90002"
       height="595.29999"
       id="rect4"
       x="0"
       y="0"
       style="fill:#dac19b" /></g><g
     id="Layer_3"
     transform="translate(-0.97094798,1.3152881)"><g
       id="g17"><path
         class="st1"
         d="m -1.3,508.3 v 87 h 843.2 l 1.3,-64.4 c 0,0 -429.9,-112.5 -844.5,-22.6 z"
         id="path7"
         inkscape:connector-curvature="0"
         style="fill:#32699b" /><path
         class="st2"
         d="m 844.5,460.6 c -25.8,44.3 -81.6,28.3 -98.2,22 -16.7,-6.3 -118.5,-67.3 -147.2,-35.2 -28.7,32.1 -68.5,20.8 -68.5,20.8 0,0 -75,-17 -121.3,2.8 -46.7,20 -123.5,18.7 -167.2,-8.9 -25.5,-16 -41.4,-47 -75.9,-33.5 C 134.3,441 101.3,476.7 66.8,447.4 50.1,433.3 0,438 0,438 v -32.7 c 0,0 50.1,-4.7 66.8,9.4 34.4,29.2 67.5,-6.4 99.4,-18.8 34.5,-13.4 50.4,17.5 75.9,33.5 43.8,27.5 120.5,28.9 167.2,8.9 46.3,-19.8 121.3,-2.8 121.3,-2.8 0,0 39.8,11.3 68.5,-20.8 28.7,-32.1 130.5,28.9 147.2,35.2 16.7,6.3 72.4,22.4 98.2,-22 z"
         id="path9"
         inkscape:connector-curvature="0"
         style="fill:#ffffff" /><path
         class="st3"
         d="m 844.5,490.6 c -25.8,44.3 -81.6,28.3 -98.2,22 -16.7,-6.3 -118.5,-67.3 -147.2,-35.2 -28.7,32.1 -68.5,20.8 -68.5,20.8 0,0 -75,-17 -121.3,2.8 -46.7,20 -123.5,18.7 -167.2,-8.9 -25.5,-16 -41.4,-47 -75.9,-33.5 C 134.3,471 101.3,506.7 66.8,477.4 50.1,463.3 0,468 0,468 v -32.7 c 0,0 50.1,-4.7 66.8,9.4 34.4,29.2 67.5,-6.4 99.4,-18.8 34.5,-13.4 50.4,17.5 75.9,33.5 43.8,27.5 120.5,28.9 167.2,8.9 46.3,-19.8 121.3,-2.8 121.3,-2.8 0,0 39.8,11.3 68.5,-20.8 28.7,-32.1 130.5,28.9 147.2,35.2 16.7,6.3 72.4,22.4 98.2,-22 z"
         id="path11"
         inkscape:connector-curvature="0"
         style="fill:#24a8e0" /><path
         class="st1"
         d="m 844.5,509.7 c -25.8,44.3 -81.6,28.3 -98.2,22 -16.7,-6.3 -118.5,-67.3 -147.2,-35.2 -28.7,32.1 -68.5,20.8 -68.5,20.8 0,0 -75,-17 -121.3,2.8 -46.7,20 -123.5,18.7 -167.2,-8.9 -25.5,-16 -41.4,-47 -75.9,-33.5 -31.9,12.4 -64.9,48.1 -99.4,18.8 C 50.1,482.3 0,487 0,487 v -32.7 c 0,0 50.1,-4.7 66.8,9.4 34.4,29.2 67.5,-6.4 99.4,-18.8 34.5,-13.4 50.4,17.5 75.9,33.5 43.8,27.5 120.5,28.9 167.2,8.9 46.3,-19.8 121.3,-2.8 121.3,-2.8 0,0 39.8,11.3 68.5,-20.8 28.7,-32.1 130.5,28.9 147.2,35.2 16.7,6.3 72.4,22.4 98.2,-22 z"
         id="path13"
         inkscape:connector-curvature="0"
         style="fill:#32699b" /><path
         class="st1"
         d="m 843.2,530.9 c -25.8,44.3 -81.6,28.3 -98.2,22 -16.7,-6.3 -118.5,-67.3 -147.2,-35.2 -28.7,32.1 -68.5,20.8 -68.5,20.8 0,0 -75,-17 -121.3,2.8 -46.7,20 -123.5,18.7 -167.2,-8.9 -25.5,-16 -41.4,-47 -75.9,-33.5 C 133,511.3 100,547 65.5,517.7 48.8,503.5 -1.3,508.3 -1.3,508.3 v -32.7 c 0,0 50.1,-4.7 66.8,9.4 34.4,29.2 67.5,-6.4 99.4,-18.8 34.5,-13.4 50.4,17.5 75.9,33.5 43.8,27.5 120.5,28.9 167.2,8.9 46.3,-19.8 121.3,-2.8 121.3,-2.8 0,0 39.8,11.3 68.5,-20.8 28.7,-32.1 130.5,28.9 147.2,35.2 16.7,6.3 72.4,22.4 98.2,-22 z"
         id="path15"
         inkscape:connector-curvature="0"
         style="fill:#32699b" /></g><g
       id="g31"><path
         class="st4"
         d="M 150.6,247.6 C 122,219 75.6,219 47,247.6 c -28.6,28.6 -28.6,75 0,103.6 28.6,28.6 75,28.6 103.6,0 28.6,-28.6 28.6,-75 0,-103.6 z m -79.2,79.2 c -15.1,-15.1 -15.1,-39.6 0,-54.8 15.1,-15.1 39.6,-15.1 54.8,0 15.1,15.1 15.1,39.6 0,54.8 -15.1,15.1 -39.7,15.1 -54.8,0 z"
         id="path19"
         inkscape:connector-curvature="0"
         style="fill:#ec4123" /><g
         id="g29"><path
           class="st2"
           d="m 115,334.5 c -9.9,4.6 -21.3,4.8 -31.3,0.5 l -25.4,25.4 c 24.8,16.5 57.4,16.2 82,-0.7 z"
           id="path21"
           inkscape:connector-curvature="0"
           style="fill:#ffffff" /><path
           class="st2"
           d="m 134.5,284.4 c 3.8,9.1 4,19.3 0.6,28.5 l 25.7,25.7 C 176.2,314.3 175.9,283 159.9,259 Z"
           id="path23"
           inkscape:connector-curvature="0"
           style="fill:#ffffff" /><path
           class="st2"
           d="m 85.3,263.1 c 9.1,-3.4 19.2,-3.2 28.2,0.5 L 139,238.1 c -24,-15.8 -55.2,-16 -79.3,-0.7 z"
           id="path25"
           inkscape:connector-curvature="0"
           style="fill:#ffffff" /><path
           class="st2"
           d="m 63,314.1 c -4.1,-9.9 -3.8,-21.2 0.7,-30.9 L 38.4,257.9 c -16.9,24.5 -17.2,56.9 -0.9,81.7 z"
           id="path27"
           inkscape:connector-curvature="0"
           style="fill:#ffffff" /></g></g><g
       id="g67"><g
         id="g37"><g
           id="g35"><path
             class="st5"
             d="m 344.2,406.6 c 19.3,-6.4 38.6,-12.8 57.8,-19.2 9.5,-3.1 18.9,-6.3 28.4,-9.4 8.1,-2.7 15.4,2.1 16.9,11.6 0.5,3.2 5.3,1.8 4.8,-1.3 -1.5,-9.3 -10.3,-19.3 -20.8,-15.8 -8.4,2.8 -16.9,5.6 -25.3,8.4 -21,7 -42.1,14 -63.1,21 -3,0.9 -1.7,5.7 1.3,4.7 z"
             id="path33"
             inkscape:connector-curvature="0"
             style="fill:#ed1b23" /></g></g><g
         id="g43"><g
           id="g41"><path
             class="st5"
             d="m 445.6,346.8 c -16.1,12.9 -32.2,25.8 -48.3,38.7 -7.7,6.2 -15.4,12.3 -23.1,18.5 -9.2,7.4 -7.2,19.7 0.8,27.2 2.4,2.2 5.9,-1.3 3.5,-3.5 -5.6,-5.2 -7.9,-12.8 -2.3,-18.9 1.1,-1.2 2.7,-2.2 4,-3.2 8.1,-6.5 16.3,-13 24.4,-19.5 14.9,-11.9 29.7,-23.8 44.6,-35.7 2.4,-2.1 -1.2,-5.6 -3.6,-3.6 z"
             id="path39"
             inkscape:connector-curvature="0"
             style="fill:#ed1b23" /></g></g><g
         id="g65"><g
           id="g57"><path
             d="m 359.2,376.5 c -12.9,7 -17.7,23.2 -10.7,36.1 7,12.9 23.2,17.7 36.1,10.7 12.9,-7 17.7,-23.2 10.7,-36.1 -7,-13 -23.2,-17.8 -36.1,-10.7 z m 23.9,44 c -11.4,6.2 -25.6,2 -31.7,-9.4 -6.2,-11.4 -2,-25.6 9.4,-31.7 11.4,-6.2 25.6,-2 31.7,9.4 6.1,11.3 1.9,25.5 -9.4,31.7 z"
             id="path45"
             inkscape:connector-curvature="0" /><path
             d="m 416.3,345.4 c -12.9,7 -17.7,23.2 -10.7,36.1 7,12.9 23.2,17.7 36.1,10.7 12.9,-7 17.7,-23.2 10.7,-36.1 -7,-12.9 -23.2,-17.7 -36.1,-10.7 z m 23.9,44 c -11.4,6.2 -25.6,2 -31.7,-9.4 -6.2,-11.4 -2,-25.6 9.4,-31.7 11.4,-6.2 25.6,-2 31.7,9.4 6.2,11.3 1.9,25.5 -9.4,31.7 z"
             id="path47"
             inkscape:connector-curvature="0" /><path
             class="st6"
             d="m 392.5,388.7 c 6.2,11.4 2,25.6 -9.4,31.7 -11.4,6.2 -25.6,2 -31.7,-9.4 -6.2,-11.4 -2,-25.6 9.4,-31.7 11.3,-6.2 25.5,-1.9 31.7,9.4 z"
             id="path49"
             inkscape:connector-curvature="0"
             style="opacity:0.3;fill:#a7a9ac" /><path
             class="st7"
             d="m 360.7,379.3 c -11.4,6.2 -15.6,20.4 -9.4,31.7 6.2,11.4 20.4,15.6 31.7,9.4 z"
             id="path51"
             inkscape:connector-curvature="0"
             style="opacity:0.2" /><path
             class="st6"
             d="m 449.6,357.7 c 6.2,11.4 2,25.6 -9.4,31.7 -11.4,6.2 -25.6,2 -31.7,-9.4 -6.2,-11.4 -2,-25.6 9.4,-31.7 11.3,-6.2 25.5,-2 31.7,9.4 z"
             id="path53"
             inkscape:connector-curvature="0"
             style="opacity:0.3;fill:#a7a9ac" /><path
             class="st7"
             d="m 417.8,348.3 c -11.4,6.2 -15.6,20.4 -9.4,31.7 6.2,11.4 20.4,15.6 31.7,9.4 z"
             id="path55"
             inkscape:connector-curvature="0"
             style="opacity:0.2" /></g><g
           id="g63"><g
             id="g61"><path
               d="m 391.1,383.4 c 3.4,-3.8 8.3,-7 13.5,-7.5 3.2,-0.3 3.2,-5.3 0,-5 -6.5,0.7 -12.7,4.2 -17,9 -2.2,2.4 1.4,5.9 3.5,3.5 z"
               id="path59"
               inkscape:connector-curvature="0" /></g></g></g></g><g
       id="g97"><polygon
         class="st8"
         points="685.5,132.3 687.6,133.2 693.4,120.8 762.7,153.2 756.9,165.7 758.9,166.6 764.7,154.2 769.7,143.5 767.7,142.5 698.4,110.1 696.4,109.2 696.4,109.1 "
         id="polygon69"
         style="fill:#7d5f39" /><g
         id="g83"><rect
           x="618.29999"
           y="100.5"
           transform="matrix(0.424,-0.9056,0.9056,0.424,204.0877,748.8555)"
           class="st9"
           width="145"
           height="226.89999"
           id="rect71"
           style="fill:#b08764" /><g
           id="g81"><path
             class="st8"
             d="M 646.9,110.9 617.7,97.2 604,126.4 c 16.2,7.6 35.4,0.6 42.9,-15.5 z"
             id="path73"
             inkscape:connector-curvature="0"
             style="fill:#7d5f39" /><path
             class="st8"
             d="M 567.7,204.2 554,233.3 583.2,247 c 7.5,-16.1 0.6,-35.3 -15.5,-42.8 z"
             id="path75"
             inkscape:connector-curvature="0"
             style="fill:#7d5f39" /><path
             class="st8"
             d="m 798.8,182 c -7.5,16.1 -0.6,35.3 15.5,42.8 L 828,195.6 Z"
             id="path77"
             inkscape:connector-curvature="0"
             style="fill:#7d5f39" /><path
             class="st8"
             d="m 735.1,318.1 29.2,13.7 13.7,-29.2 c -16.2,-7.5 -35.4,-0.6 -42.9,15.5 z"
             id="path79"
             inkscape:connector-curvature="0"
             style="fill:#7d5f39" /></g></g><rect
         x="662.70001"
         y="226.8"
         transform="matrix(0.4241,-0.9056,0.9056,0.4241,211.2153,801.1642)"
         class="st8"
         width="145.7"
         height="15.4"
         id="rect85"
         style="fill:#7d5f39" /><rect
         x="575.40002"
         y="186"
         transform="matrix(0.4241,-0.9056,0.9056,0.4241,197.9619,698.6263)"
         class="st8"
         width="145.7"
         height="15.4"
         id="rect87"
         style="fill:#7d5f39" /><path
         class="st10"
         d="m 680,168.3 c -1.4,2.9 -4.8,4.1 -7.7,2.8 l -22.1,-10.3 c -2.9,-1.4 -4.1,-4.8 -2.8,-7.7 v 0 c 1.4,-2.9 4.8,-4.1 7.7,-2.8 l 22.1,10.3 c 2.9,1.4 4.1,4.8 2.8,7.7 z"
         id="path89"
         inkscape:connector-curvature="0"
         style="fill:#ffcc3a" /><path
         class="st10"
         d="m 767.2,209.2 c -1.4,2.9 -4.8,4.1 -7.7,2.8 l -22.1,-10.3 c -2.9,-1.4 -4.1,-4.8 -2.8,-7.7 v 0 c 1.4,-2.9 4.8,-4.1 7.7,-2.8 l 22.1,10.3 c 2.9,1.4 4.2,4.8 2.8,7.7 z"
         id="path91"
         inkscape:connector-curvature="0"
         style="fill:#ffcc3a" /><rect
         x="659.79999"
         y="106"
         transform="matrix(0.4241,-0.9056,0.9056,0.4241,273.1548,666.9466)"
         class="st8"
         width="2.2"
         height="25.5"
         id="rect93"
         style="fill:#7d5f39" /><rect
         x="784"
         y="164.10001"
         transform="matrix(0.4241,-0.9056,0.9056,0.4241,292.007,812.882)"
         class="st8"
         width="2.2"
         height="25.5"
         id="rect95"
         style="fill:#7d5f39" /></g><path
       class="st11"
       d="m 209.9,146.9 c 0.3,0.8 1.1,1.3 2,1.1 v 0 c 0.8,-0.3 1.3,-1.1 1.1,-2 v 0 c -0.3,-0.8 -1.1,-1.3 -2,-1.1 v 0 c -0.9,0.3 -1.4,1.2 -1.1,2 z"
       id="path99"
       inkscape:connector-curvature="0"
       style="fill:#939598" /><g
       id="g131"><path
         class="st11"
         d="m 255,290.4 -13.9,11.4 -13.9,11.4 c -0.6,0.5 -3.6,4.3 -0.1,8.6 l 23.2,28.3 1.5,1.8 23.2,28.3 c 3.5,4.3 7.8,2 8.4,1.5 l 13.9,-11.4 13.9,-11.4 c 0.6,-0.5 3.6,-4.3 0.1,-8.6 l -23.1,-28.3 -1.5,-1.8 -23.2,-28.3 c -3.5,-4.2 -7.8,-2 -8.5,-1.5 z"
         id="path101"
         inkscape:connector-curvature="0"
         style="fill:#939598" /><path
         d="m 254.9,292.4 -13,10.6 -12.9,10.6 c -0.6,0.5 -3.4,4 0,8.2 l 22.5,27.4 1.5,1.8 22.5,27.4 c 3.4,4.1 7.4,2.1 8,1.6 l 12.9,-10.6 12.9,-10.6 c 0.6,-0.5 3.4,-4 0,-8.2 l -22.5,-27.4 -1.5,-1.8 -22.4,-27.4 c -3.4,-4.1 -7.4,-2.1 -8,-1.6 z"
         id="path103"
         inkscape:connector-curvature="0" /><path
         class="st11"
         d="m 240.2,310 c 0.2,0.3 0.7,0.3 1.1,0 l 8.8,-7.3 c 0.4,-0.3 0.5,-0.8 0.2,-1.1 v 0 c -0.2,-0.3 -0.7,-0.3 -1.1,0 l -8.8,7.3 c -0.3,0.4 -0.4,0.8 -0.2,1.1 z"
         id="path105"
         inkscape:connector-curvature="0"
         style="fill:#939598" /><path
         class="st11"
         d="m 243.4,304.5 c 0.2,0.2 0.5,0.3 0.7,0.1 v 0 c 0.2,-0.2 0.3,-0.5 0.1,-0.7 v 0 c -0.2,-0.2 -0.5,-0.3 -0.7,-0.1 v 0 c -0.3,0.2 -0.3,0.5 -0.1,0.7 z"
         id="path107"
         inkscape:connector-curvature="0"
         style="fill:#939598" /><rect
         x="247.89999"
         y="300"
         transform="matrix(0.7728,-0.6346,0.6346,0.7728,-151.8651,246.7513)"
         class="st2"
         width="41.700001"
         height="71.099998"
         id="rect109"
         style="fill:#ffffff" /><path
         class="st12"
         d="m 292.3,368.3 c 0.9,1.1 2.6,1.3 3.8,0.4 1.1,-0.9 1.3,-2.6 0.4,-3.8 -0.9,-1.1 -2.6,-1.3 -3.8,-0.4 -1.2,1 -1.3,2.6 -0.4,3.8 z"
         id="path111"
         inkscape:connector-curvature="0"
         style="fill:none" /><path
         class="st12"
         d="m 292.5,368.1 c 0.9,1 2.4,1.2 3.5,0.3 1,-0.9 1.2,-2.4 0.3,-3.5 -0.9,-1 -2.4,-1.2 -3.5,-0.3 -1,1 -1.2,2.5 -0.3,3.5 z"
         id="path113"
         inkscape:connector-curvature="0"
         style="fill:none" /><path
         class="st2"
         d="m 291.8,367.3 c 0.9,1.1 2.6,1.3 3.8,0.4 1.1,-0.9 1.3,-2.6 0.4,-3.8 -0.9,-1.1 -2.6,-1.3 -3.8,-0.4 -1.1,1 -1.3,2.7 -0.4,3.8 z"
         id="path115"
         inkscape:connector-curvature="0"
         style="fill:#ffffff" /><path
         d="m 292,367.2 c 0.9,1.1 2.5,1.2 3.5,0.3 1.1,-0.9 1.2,-2.5 0.3,-3.5 -0.9,-1.1 -2.5,-1.2 -3.5,-0.3 -1.1,0.9 -1.2,2.5 -0.3,3.5 z"
         id="path117"
         inkscape:connector-curvature="0" /><g
         id="g129"><path
           d="m 249.5,324.7 -0.5,0.4 -3.4,-4.2 -0.8,0.7 -0.3,-0.4 1.3,-1 z"
           id="path119"
           inkscape:connector-curvature="0" /><path
           d="m 249.9,321.6 -1.1,-1.4 c -0.2,-0.3 -0.4,-0.5 -0.5,-0.7 -0.1,-0.2 -0.1,-0.4 -0.1,-0.6 0,-0.3 0,-0.6 0.2,-0.9 0.1,-0.3 0.3,-0.5 0.6,-0.8 0.5,-0.4 1,-0.6 1.5,-0.5 0.5,0.1 1,0.4 1.4,0.9 l 1.1,1.4 c 0.2,0.2 0.4,0.5 0.4,0.7 0.1,0.2 0.1,0.4 0.2,0.6 0,0.3 0,0.6 -0.2,0.9 -0.1,0.3 -0.3,0.6 -0.6,0.8 -0.3,0.2 -0.5,0.4 -0.8,0.4 -0.3,0.1 -0.6,0.1 -0.9,0 -0.2,0 -0.4,-0.1 -0.6,-0.3 -0.2,0 -0.4,-0.2 -0.6,-0.5 z m 0.5,-0.2 c 0.3,0.4 0.7,0.6 1,0.6 0.4,0.1 0.7,-0.1 1.1,-0.3 0.3,-0.3 0.5,-0.6 0.5,-1 0,-0.4 -0.1,-0.7 -0.4,-1.1 l -1.3,-1.6 c -0.3,-0.4 -0.6,-0.6 -1,-0.6 -0.4,0 -0.7,0.1 -1.1,0.3 -0.3,0.3 -0.5,0.6 -0.5,1 0,0.4 0.1,0.8 0.4,1.1 z"
           id="path121"
           inkscape:connector-curvature="0" /><path
           d="m 253.6,316.9 -0.4,0.4 -0.7,-0.8 0.4,-0.4 z m 2.1,2.7 -0.4,0.4 -0.7,-0.8 0.4,-0.4 z"
           id="path123"
           inkscape:connector-curvature="0" /><path
           d="m 255.4,317.1 -1.1,-1.4 c -0.2,-0.3 -0.4,-0.5 -0.5,-0.7 -0.1,-0.2 -0.1,-0.4 -0.1,-0.6 0,-0.3 0,-0.6 0.2,-0.9 0.1,-0.3 0.3,-0.5 0.6,-0.8 0.5,-0.4 1,-0.6 1.5,-0.5 0.5,0.1 1,0.4 1.4,0.9 l 1.2,1.4 c 0.2,0.2 0.4,0.5 0.4,0.7 0.1,0.2 0.1,0.4 0.2,0.6 0,0.3 0,0.6 -0.2,0.9 -0.1,0.3 -0.3,0.6 -0.6,0.8 -0.3,0.2 -0.5,0.4 -0.9,0.4 -0.3,0.1 -0.6,0.1 -0.9,0 -0.2,0 -0.4,-0.1 -0.6,-0.3 -0.2,0 -0.4,-0.2 -0.6,-0.5 z m 0.5,-0.2 c 0.3,0.4 0.7,0.6 1,0.6 0.4,0.1 0.7,-0.1 1.1,-0.3 0.3,-0.3 0.5,-0.6 0.5,-1 0,-0.4 -0.1,-0.7 -0.4,-1.1 l -1.3,-1.6 c -0.3,-0.4 -0.6,-0.6 -1,-0.6 -0.4,0 -0.7,0.1 -1.1,0.3 -0.3,0.3 -0.5,0.6 -0.5,1 0,0.4 0.1,0.8 0.4,1.1 z"
           id="path125"
           inkscape:connector-curvature="0" /><path
           d="m 261.8,314.6 -0.6,0.5 -0.3,-2.5 c -0.1,0.1 -0.2,0.2 -0.2,0.3 -0.1,0.1 -0.1,0.1 -0.2,0.2 -0.4,0.3 -0.9,0.5 -1.4,0.4 -0.5,-0.1 -0.9,-0.3 -1.3,-0.8 -0.4,-0.5 -0.5,-0.9 -0.5,-1.5 0.1,-0.5 0.3,-1 0.8,-1.4 0.4,-0.4 0.9,-0.5 1.5,-0.5 0.5,0 1,0.3 1.3,0.7 0.3,0.4 0.5,1 0.6,1.9 0,0.1 0,0.2 0,0.2 z m -1.6,-2.1 c 0.3,-0.3 0.5,-0.6 0.5,-1 0,-0.4 -0.1,-0.7 -0.3,-1.1 -0.3,-0.3 -0.6,-0.5 -1,-0.5 -0.4,0 -0.8,0.1 -1.1,0.3 -0.3,0.2 -0.5,0.6 -0.5,0.9 0,0.4 0.1,0.7 0.4,1.1 0.3,0.3 0.6,0.5 1,0.6 0.4,0.1 0.7,0 1,-0.3 z"
           id="path127"
           inkscape:connector-curvature="0" /></g></g><g
       id="g149"><g
         id="g139"><path
           class="st2"
           d="m 679.7,373.8 c -4.7,0.3 -8.4,0.2 -12.8,2.8 -11.7,6.8 -15.8,22 -17.7,34.4 -1.9,13.2 -1.4,26.8 -1.3,40.1 0.1,13.2 0.6,26.9 6.3,39 4.3,9.1 12.6,15.5 22.9,13 11.2,-2.8 17.2,-11.3 16.8,-22.9 -0.2,-6.8 0.5,-13.7 1.4,-20.4 2.5,-17.5 6.8,-34.8 11.7,-51.7 4.9,-16.7 -6.6,-35.7 -27.3,-34.3 z"
           id="path133"
           inkscape:connector-curvature="0"
           style="fill:#ffffff" /><path
           class="st13"
           d="m 655.1,490.2 c -5.7,-12.1 -6.2,-25.9 -6.3,-39 -0.1,-13.3 -0.6,-26.9 1.3,-40.1 1.8,-12.4 6,-27.6 17.7,-34.4 4.5,-2.6 8.2,-2.5 12.8,-2.8 1.3,-0.1 2.5,-0.1 3.7,0 -1.5,-0.1 -3,-0.2 -4.7,-0.1 -4.7,0.3 -8.4,0.2 -12.8,2.8 -11.7,6.8 -15.8,22 -17.7,34.4 -1.9,13.2 -1.4,26.8 -1.3,40.1 0.1,13.2 0.6,26.9 6.3,39 3.5,7.4 9.7,13.1 17.4,13.5 -7.2,-0.8 -13,-6.3 -16.4,-13.4 z"
           id="path135"
           inkscape:connector-curvature="0"
           style="fill:#58c2e8" /><path
           class="st13"
           d="m 682.5,390.7 c 0,0 -31,11.3 -31,45 0,8.6 -0.5,20.1 5.7,27.1 3.8,4.2 7.6,4.3 6.4,-1.9 -1,-5.5 -4.2,-10.6 -5.1,-16 -6.6,-39.6 23,-45.5 23,-45.5 0,0 27.7,12.1 12.8,49.3 -2.1,5.1 -6.2,9.5 -8.4,14.6 -2.5,5.9 1.3,6.6 5.9,3.3 7.6,-5.5 9.5,-16.8 11.3,-25.2 7.2,-33.1 -20.6,-50.7 -20.6,-50.7 z"
           id="path137"
           inkscape:connector-curvature="0"
           style="fill:#58c2e8" /></g><g
         id="g147"><path
           class="st2"
           d="m 767.4,362.6 c 4.1,2.3 7.5,3.8 10.4,8 7.7,11.2 4.9,26.7 1.2,38.7 -3.9,12.7 -10.2,24.8 -16,36.8 -5.7,11.9 -12.1,24.1 -22.4,32.6 -7.8,6.4 -18.1,8.6 -26.2,1.9 -8.9,-7.3 -10.7,-17.6 -5.4,-27.9 3.1,-6.1 5.4,-12.6 7.5,-19.1 5.3,-16.9 8.8,-34.3 11.6,-51.8 2.6,-17.1 21.2,-29.4 39.3,-19.2 z"
           id="path141"
           inkscape:connector-curvature="0"
           style="fill:#ffffff" /><path
           class="st13"
           d="m 739.6,478.3 c 10.4,-8.5 16.7,-20.7 22.4,-32.6 5.8,-12 12.1,-24 16,-36.8 3.7,-12 6.5,-27.5 -1.2,-38.7 -2.9,-4.3 -6.3,-5.7 -10.4,-8 -1.1,-0.6 -2.2,-1.1 -3.3,-1.6 1.4,0.5 2.8,1.1 4.2,1.9 4.1,2.3 7.5,3.8 10.4,8 7.7,11.2 4.9,26.7 1.2,38.7 -3.9,12.7 -10.2,24.8 -16,36.8 -5.7,11.9 -12.1,24.1 -22.4,32.6 -6.3,5.2 -14.4,7.6 -21.5,4.8 7,2.3 14.6,-0.1 20.6,-5.1 z"
           id="path143"
           inkscape:connector-curvature="0"
           style="fill:#58c2e8" /><path
           class="st13"
           d="m 757.7,376.6 c 0,0 23.1,23.5 8.7,53.9 -3.7,7.8 -8.1,18.4 -16.7,22 -5.2,2.2 -8.7,0.6 -5,-4.5 3.3,-4.5 8.3,-7.7 11.5,-12.3 22.9,-32.9 -1.3,-50.9 -1.3,-50.9 0,0 -30.2,-1 -32.7,39.1 -0.3,5.5 1.6,11.2 1.4,16.8 -0.3,6.4 -4,5.4 -6.7,0.4 -4.5,-8.2 -1.4,-19.3 0.6,-27.7 7.4,-32.8 40.2,-36.8 40.2,-36.8 z"
           id="path145"
           inkscape:connector-curvature="0"
           style="fill:#58c2e8" /></g></g><g
       id="g179"><path
         class="st14"
         d="M 13.3,13.1 40.5,8.8 C 40.4,5.5 40.2,2.2 40,-1 H 1.9 v 164.1 c 8.3,0 16.1,-9.5 22.4,-25.5 l -10.5,-11.9 12,7.9 c 1.3,-3.6 2.5,-7.5 3.7,-11.7 l -15.6,-17.8 17.3,11.4 c 1.3,-5.4 2.5,-11.1 3.6,-17.2 L 17.9,86.6 35.6,92.9 C 36.5,87.3 37.3,81.4 38,75.4 L 19.2,62.3 38.6,69.2 c 0.5,-4.9 0.9,-9.8 1.2,-14.9 L 19.2,40 40.1,47.5 c 0.1,-2.8 0.2,-5.5 0.3,-8.3 L 17.8,32.7 40.6,33 c 0.1,-2.9 0.1,-5.8 0.1,-8.8 0,-2.7 0,-5.4 -0.1,-8.1 z"
         id="path151"
         inkscape:connector-curvature="0"
         style="fill:#5c9742" /><g
         id="g161"><polyline
           class="st15"
           points="68.1,134 11.9,152.3 1.8,165.8 69.4,136.2    "
           id="polyline153"
           style="fill:#4f833e" /><g
           id="g159"><path
             class="st14"
             d="m 211.5,115.9 c 2.5,-1.1 5,-2.2 7.5,-3.3 l -8.2,-26.6 14.9,23.5 c 3.4,-1.6 6.7,-3.2 9.9,-4.8 l -8.2,-26.7 14.8,23.4 c 5.4,-2.8 10.6,-5.6 15.6,-8.5 l -13.9,-18.4 19.6,15.1 c 4.8,-2.9 9.4,-5.7 13.8,-8.6 l -19.8,-16.7 26.4,12.3 c 4.7,-3.3 9.2,-6.6 13.2,-9.8 l -23.3,-11.3 30.1,5.6 c 5.5,-4.8 10,-9.4 13.5,-13.8 L 286.2,47.7 324,36.9 c 2.1,-4.8 2.5,-9.1 1,-12.7 L 66.9,135.6 c 3.3,7.7 15.2,11.1 32.7,10.6 l 6.9,-14.5 -2.6,14.3 c 3.9,-0.3 8,-0.7 12.3,-1.3 l 10.3,-21.7 -3.7,20.6 c 5.5,-0.9 11.3,-2.1 17.4,-3.6 l 4.1,-20.3 1.2,19 c 5.6,-1.4 11.3,-3 17.2,-4.8 l 4.6,-22.6 1.3,20.7 c 4.7,-1.5 9.5,-3.1 14.3,-4.9 l 5.1,-24.8 1.5,22.4 c 2.6,-1 5.2,-2 7.9,-3 l -3,-23.5 8.8,21.2 c 2.8,-1.2 5.6,-2.3 8.3,-3.5 z"
             id="path155"
             inkscape:connector-curvature="0"
             style="fill:#5c9742" /><path
             class="st16"
             d="m 180.4,43.9 c 2.5,-1.1 5,-2.1 7.5,-3.2 l 13.8,24.2 -6.9,-27 c 3.4,-1.4 6.9,-2.7 10.3,-3.9 L 218.9,58.3 212,31.5 c 5.7,-2 11.4,-3.9 16.9,-5.6 l 3.9,22.7 2.4,-24.6 c 5.4,-1.6 10.6,-2.9 15.7,-4.2 l -1.4,25.9 9.2,-27.6 c 5.6,-1.2 11,-2.2 16.2,-2.9 L 267,39.9 283.6,14.1 c 7.2,-0.7 13.7,-0.8 19.4,-0.4 l -21.7,22.5 33.8,-20.1 c 5,1.8 8.4,4.4 10,8 L 66.9,135.6 c -3.3,-7.7 2.4,-18.7 14.7,-31 l 15.3,4.9 -12.1,-7.9 c 2.9,-2.7 6,-5.4 9.4,-8.1 L 117,100.9 99.4,89.4 c 4.5,-3.4 9.3,-6.8 14.5,-10.2 l 17.6,10.9 -13,-13.9 c 4.9,-3.1 10,-6.2 15.3,-9.2 L 153.4,79.2 139.2,64 c 4.3,-2.4 8.8,-4.7 13.4,-7.1 L 174.1,70.2 159,53.7 c 2.5,-1.2 5,-2.4 7.6,-3.6 l 15.1,18.3 -9.4,-21 c 2.7,-1.1 5.4,-2.4 8.1,-3.5 z"
             id="path157"
             inkscape:connector-curvature="0"
             style="fill:#4d813d" /></g></g><g
         id="g167"><path
           class="st17"
           d="m 18.7,162.2 c 0,0 192.8,-75.4 248.6,111.3 l -7.2,-2 c 0,0 -59.9,-158.6 -244,-99.9 z"
           id="path163"
           inkscape:connector-curvature="0"
           style="fill:#5b9943" /><path
           class="st18"
           d="m 50.8,162.1 -7.5,12.3 c 4.8,0.2 9.5,0.6 14.2,1.1 L 76,158.1 64.8,176.4 c 4.4,0.6 8.8,1.4 13.1,2.2 l 17.4,-16.4 -10.8,17.7 c 5.1,1.1 10.2,2.4 15.2,3.8 l 16.6,-15.6 -10.6,17.3 c 3.5,1.1 7.1,2.2 10.5,3.4 l 24.8,-16.5 -17,19.4 c 2.5,0.9 5.1,1.9 7.6,2.9 l 16.6,-21 -10.1,23.7 c 4.4,1.8 8.6,3.7 12.8,5.7 l 13.1,-18.3 -7.7,20.8 c 3.8,1.8 7.6,3.7 11.2,5.6 l 16.6,-23.2 -9.9,26.8 c 4.6,2.5 9,5 13.3,7.5 l 8.3,-24.3 -1.8,28.3 c 4.2,2.6 8.2,5.1 12,7.6 l 6,-24.4 0.8,28.9 c 4.2,2.8 8.1,5.6 11.8,8.2 l 0.3,-25.2 8.2,31.6 c 5.2,3.9 9.5,7.4 12.8,10.1 l -7.9,-28.8 22.2,37.3 7.2,2 C 187.6,97.5 4.2,162.1 4.2,162.1 L 0,176.9 c 12.7,-2.2 25.4,-3 37.9,-2.7 z"
           id="path165"
           inkscape:connector-curvature="0"
           style="fill:#4b7a39" /></g><path
         class="st18"
         d="m 46.1,180.2 -9.3,8.2 c 3.9,1.4 7.7,2.9 11.4,4.5 L 67.8,183.3 54,195.5 c 3.5,1.6 6.9,3.3 10.3,5.1 l 18.4,-9.1 -13.4,11.9 c 3.9,2.2 7.8,4.5 11.5,6.9 l 17.6,-8.7 -13.1,11.6 c 2.6,1.8 5.2,3.6 7.8,5.4 l 24.6,-7.4 -18.8,11.8 c 1.9,1.4 3.7,2.8 5.5,4.3 l 19,-13.1 -14.3,16.9 c 3.1,2.6 6.2,5.2 9.1,7.9 l 15.4,-11.7 -11.6,15.2 c 2.7,2.5 5.3,5 7.8,7.5 l 19.5,-14.9 -14.9,19.5 c 3.2,3.2 6.2,6.4 9.1,9.6 l 13,-17.9 -8.6,22.8 c 2.8,3.1 5.4,6.2 7.9,9.2 l 11.1,-18.6 -6.7,23.9 c 2.7,3.4 5.3,6.7 7.6,9.7 l 6.6,-20.7 -1.2,28 c 3.3,4.5 6,8.5 8,11.6 l 0.7,-25.7 8.8,36.3 5.4,3.5 C 175,161.6 7.8,168.4 7.8,168.4 l -7.2,11.2 c 11,1.4 21.6,3.9 31.9,7.3 z"
         id="path169"
         inkscape:connector-curvature="0"
         style="fill:#4b7a39" /><g
         id="g177"><polyline
           class="st15"
           points="43.2,120.2 5.5,151.4 1.9,164.9 44.9,121.5    "
           id="polyline171"
           style="fill:#4f833e" /><path
           class="st16"
           d="m 142.8,-1 0.8,2.7 -1.7,-2.7 h -16.5 l 10.5,14.4 -18,-14.4 h -0.1 c -2.2,2 -4.4,4 -6.7,6.1 l 13.6,18.6 -18,-14.4 c -1.6,1.6 -3.2,3.1 -4.8,4.7 -1.7,1.7 -3.5,3.5 -5.1,5.3 L 110.4,32.5 93.2,23 c -1.6,1.7 -3.2,3.4 -4.7,5.1 L 105.3,36 84.7,32.3 c -2.8,3.2 -5.5,6.4 -8.1,9.5 L 92.1,49.2 73.3,46 c -3.2,4 -6.2,7.9 -9,11.8 l 14.2,6.7 -16.9,-3 c -3,4.2 -5.6,8.3 -8,12.3 l 17,3.4 -19.8,1.3 c -1.8,3.1 -3.4,6.2 -4.7,9.1 L 57.9,90 44.6,91 c -5.7,13.2 -6.8,23.4 -1.8,28.3 L 162.8,-1 Z"
           id="path173"
           inkscape:connector-curvature="0"
           style="fill:#4d813d" /><path
           class="st14"
           d="M 196.9,-1 H 162.8 L 42.7,119.3 c 4.9,4.9 15.1,3.9 28.3,-1.9 l 0.9,-13.2 2.4,11.8 c 2.9,-1.4 5.9,-3 9.1,-4.7 l 1.3,-19.8 3.5,17 c 4,-2.4 8.1,-5.1 12.3,-8.1 l -3,-16.9 6.7,14.2 c 3.8,-2.8 7.8,-5.8 11.8,-9 l -3.4,-18.8 7.4,15.5 c 3.1,-2.6 6.3,-5.3 9.5,-8.1 l -3.7,-20.6 8,16.8 c 1.7,-1.6 3.4,-3.1 5.1,-4.7 l -9.5,-17.2 13.3,13.6 c 1.8,-1.7 3.5,-3.4 5.2,-5.2 1.6,-1.6 3.2,-3.2 4.7,-4.8 l -14.4,-17.9 18.6,13.5 c 2.1,-2.2 4.1,-4.5 6.1,-6.7 l -14.5,-18 18.6,13.3 c 3.3,-3.8 6.4,-7.6 9.4,-11.3 l -16.3,-9.9 19.6,5.6 c 2.8,-3.7 5.5,-7.3 8,-10.8 l -20.3,-6.8 24.1,1.3 c 1.9,-2.8 3.7,-5.7 5.4,-8.5 z"
           id="path175"
           inkscape:connector-curvature="0"
           style="fill:#5c9742" /></g></g><g
       id="g221"><path
         class="st19"
         d="m 316.5,167.9 c -0.2,-0.9 0.4,-1.9 1.3,-2.1 l 9.9,-2.1 c 0.9,-0.2 1.9,0.4 2.1,1.3 v 0 c 0.2,0.9 -0.4,1.9 -1.3,2.1 l -9.9,2.1 c -0.9,0.3 -1.9,-0.3 -2.1,-1.3 z"
         id="path181"
         inkscape:connector-curvature="0"
         style="fill:#9d1d23" /><path
         class="st19"
         d="m 305.5,171.1 c -0.2,-0.9 0.1,-1.8 0.6,-1.9 l 5.7,-1.2 c 0.5,-0.1 1.1,0.6 1.3,1.5 v 0 c 0.2,0.9 -0.1,1.8 -0.6,1.9 l -5.7,1.2 c -0.5,0.1 -1.1,-0.5 -1.3,-1.5 z"
         id="path183"
         inkscape:connector-curvature="0"
         style="fill:#9d1d23" /><path
         class="st19"
         d="m 298.3,172.8 c -0.2,-0.9 0,-1.8 0.4,-1.9 l 4.2,-0.9 c 0.4,-0.1 0.9,0.6 1.1,1.5 v 0 c 0.2,0.9 0,1.8 -0.4,1.9 l -4.2,0.9 c -0.4,0.1 -0.9,-0.5 -1.1,-1.5 z"
         id="path185"
         inkscape:connector-curvature="0"
         style="fill:#9d1d23" /><path
         class="st20"
         d="m 396.1,146.7 -59.8,13 c -2,0.4 -3.5,2.5 -4,5.2 l -34.9,7.6 c -5.2,1.1 -8.5,6.2 -7.4,11.4 l 10.1,46.4 c 1.1,5.2 6.2,8.5 11.4,7.4 l 96,-20.8 c 5.2,-1.1 8.5,-6.2 7.4,-11.4 l -0.9,-4.2 -9.2,-42.3 -0.9,-4.2 c -1,-5.2 -4.6,-8.8 -7.8,-8.1 z"
         id="path187"
         inkscape:connector-curvature="0"
         style="fill:#06a0c2" /><rect
         x="293.89999"
         y="170.60001"
         transform="matrix(0.9773,-0.2118,0.2118,0.9773,-33.3874,79.1196)"
         class="st21"
         width="117.5"
         height="49.700001"
         id="rect189"
         style="fill:#ea3031" /><g
         id="g205"><path
           class="st22"
           d="m 395.4,187.3 c 3.4,15.7 -6.6,31.2 -22.3,34.6 -15.7,3.4 -31.2,-6.6 -34.6,-22.3 -3.4,-15.7 6.6,-31.2 22.3,-34.6 15.7,-3.4 31.2,6.5 34.6,22.3 z"
           id="path191"
           inkscape:connector-curvature="0"
           style="fill:#493c22" /><path
           class="st23"
           d="m 391.5,188.1 c 2.9,13.5 -5.7,26.9 -19.2,29.8 -13.5,2.9 -26.9,-5.7 -29.8,-19.2 -2.9,-13.5 5.7,-26.9 19.2,-29.8 13.5,-2.9 26.9,5.7 29.8,19.2 z"
           id="path193"
           inkscape:connector-curvature="0"
           style="fill:#e7d9df" /><path
           class="st22"
           d="m 386.3,189.2 c 2.3,10.7 -4.5,21.2 -15.1,23.5 -10.7,2.3 -21.2,-4.5 -23.5,-15.1 -2.3,-10.7 4.5,-21.2 15.1,-23.5 10.7,-2.3 21.2,4.5 23.5,15.1 z"
           id="path195"
           inkscape:connector-curvature="0"
           style="fill:#493c22" /><path
           class="st21"
           d="m 384.2,189.7 c 2.1,9.5 -4,18.9 -13.5,21 -9.5,2.1 -18.9,-4 -21,-13.5 -2.1,-9.5 4,-18.9 13.5,-21 9.6,-2.1 19,4 21,13.5 z"
           id="path197"
           inkscape:connector-curvature="0"
           style="fill:#ea3031" /><path
           class="st24"
           d="m 383.1,189.9 c 1.9,8.9 -3.7,17.6 -12.6,19.6 -8.9,1.9 -17.6,-3.7 -19.6,-12.6 -1.9,-8.9 3.7,-17.6 12.6,-19.6 8.9,-1.9 17.6,3.8 19.6,12.6 z"
           id="path199"
           inkscape:connector-curvature="0"
           style="fill:#131821" /><path
           class="st25"
           d="m 370.8,192.6 c 0.5,2.1 -0.9,4.2 -3,4.6 -2.1,0.5 -4.2,-0.9 -4.6,-3 -0.5,-2.1 0.9,-4.2 3,-4.6 2.1,-0.4 4.1,0.9 4.6,3 z"
           id="path201"
           inkscape:connector-curvature="0"
           style="fill:#191d2c" /><path
           class="st26"
           d="m 369,193 c 0.2,1.1 -0.5,2.2 -1.6,2.4 -1.1,0.2 -2.2,-0.5 -2.4,-1.6 -0.2,-1.1 0.5,-2.2 1.6,-2.4 1.1,-0.2 2.1,0.5 2.4,1.6 z"
           id="path203"
           inkscape:connector-curvature="0"
           style="fill:#383d4a" /></g><g
         id="g215"><path
           class="st27"
           d="m 393,158.2 c 0.2,0.9 -0.4,1.7 -1.2,1.9 l -10.5,2.3 c -0.9,0.2 -1.7,-0.4 -1.9,-1.2 l -1.6,-7.2 c -0.2,-0.9 0.4,-1.7 1.2,-1.9 l 10.5,-2.3 c 0.9,-0.2 1.7,0.4 1.9,1.2 z"
           id="path207"
           inkscape:connector-curvature="0"
           style="fill:#7b411a" /><g
           id="g213"><path
             class="st28"
             d="m 391.1,157.7 c 0.1,0.7 -0.3,1.3 -0.9,1.4 l -7.9,1.7 c -0.7,0.1 -1.3,-0.3 -1.4,-0.9 l -1.2,-5.4 c -0.1,-0.7 0.3,-1.3 0.9,-1.4 l 7.9,-1.7 c 0.7,-0.1 1.3,0.3 1.4,0.9 z"
             id="path209"
             inkscape:connector-curvature="0"
             style="fill:#f7fcfe" /><path
             class="st29"
             d="m 381.3,160.6 c 0.3,0.2 0.6,0.3 1,0.2 l 7.9,-1.7 c 0.7,-0.1 1.1,-0.8 0.9,-1.4 l -1.2,-5.4 c -0.1,-0.3 -0.2,-0.5 -0.4,-0.6 z"
             id="path211"
             inkscape:connector-curvature="0"
             style="fill:#d1d3d4" /></g></g><path
         class="st27"
         d="m 351,163 c 0.4,1.8 -0.8,3.6 -2.6,4 l -8.3,1.8 c -1.8,0.4 -3.6,-0.8 -4,-2.6 v 0 c -0.4,-1.8 0.8,-3.6 2.6,-4 l 8.3,-1.8 c 1.8,-0.4 3.6,0.8 4,2.6 z"
         id="path217"
         inkscape:connector-curvature="0"
         style="fill:#7b411a" /><path
         class="st19"
         d="m 337.5,179.6 c 0.4,1.7 -0.7,3.4 -2.5,3.8 v 0 c -1.7,0.4 -3.4,-0.7 -3.8,-2.5 v 0 c -0.4,-1.7 0.7,-3.4 2.5,-3.8 v 0 c 1.7,-0.3 3.4,0.8 3.8,2.5 z"
         id="path219"
         inkscape:connector-curvature="0"
         style="fill:#9d1d23" /></g><g
       id="g263"><g
         id="g227"><rect
           x="463.70001"
           y="225"
           transform="matrix(0.9865,-0.1635,0.1635,0.9865,-37.5973,84.7085)"
           class="st30"
           width="64.199997"
           height="91.599998"
           id="rect223"
           style="fill:#1475bb" /><rect
           x="458.5"
           y="226.60001"
           transform="matrix(0.9865,-0.1635,0.1635,0.9865,-37.9451,83.8882)"
           class="st31"
           width="64.199997"
           height="91.599998"
           id="rect225"
           style="fill:#223e81" /></g><g
         id="g243"><path
           class="st32"
           d="m 511.8,274.3 c 6.7,10 4,23.6 -6,30.3 -10,6.7 -23.6,4 -30.3,-6 -6.7,-10 -4,-23.6 6,-30.3 10,-6.7 23.6,-4.1 30.3,6 z"
           id="path229"
           inkscape:connector-curvature="0"
           style="fill:none;stroke:#c1a355;stroke-width:3;stroke-miterlimit:10" /><path
           class="st32"
           d="m 498.9,307.6 c 0,0 -11.2,-31.1 -7,-43"
           id="path231"
           inkscape:connector-curvature="0"
           style="fill:none;stroke:#c1a355;stroke-width:3;stroke-miterlimit:10" /><path
           class="st32"
           d="m 491.5,308.2 c 0,0 -19.2,-18.1 -10,-39.9"
           id="path233"
           inkscape:connector-curvature="0"
           style="fill:none;stroke:#c1a355;stroke-width:3;stroke-miterlimit:10" /><path
           class="st32"
           d="m 501.9,306.7 c 0,0 15.1,-21.3 -4,-41.7"
           id="path235"
           inkscape:connector-curvature="0"
           style="fill:none;stroke:#c1a355;stroke-width:3;stroke-miterlimit:10" /><path
           class="st32"
           d="m 476.6,300.6 c 0,0 24.2,-1.9 38.4,-9.6"
           id="path237"
           inkscape:connector-curvature="0"
           style="fill:none;stroke:#c1a355;stroke-width:3;stroke-miterlimit:10" /><path
           class="st32"
           d="m 472,283.7 c 0,0 22.8,-11.5 39.8,-9.4"
           id="path239"
           inkscape:connector-curvature="0"
           style="fill:none;stroke:#c1a355;stroke-width:3;stroke-miterlimit:10" /><line
           class="st32"
           x1="472.5"
           y1="291.89999"
           x2="515.09998"
           y2="282.60001"
           id="line241"
           style="fill:none;stroke:#c1a355;stroke-width:3;stroke-miterlimit:10" /></g><g
         id="g261"><path
           class="st33"
           d="m 460.6,245.6 c 0.5,-0.2 1.1,-0.4 2,-0.5 1,-0.2 1.8,-0.1 2.4,0.3 0.5,0.3 0.9,0.9 1,1.6 0.1,0.7 0,1.4 -0.3,1.9 -0.5,0.7 -1.3,1.1 -2.3,1.3 -0.3,0.1 -0.6,0.1 -0.9,0.1 l 0.6,3.3 -1.1,0.2 z m 1.7,3.7 c 0.2,0 0.5,0 0.9,-0.1 1.3,-0.2 1.9,-1 1.8,-2.1 -0.2,-1.1 -1,-1.5 -2.2,-1.3 -0.5,0.1 -0.8,0.2 -1,0.3 z"
           id="path245"
           inkscape:connector-curvature="0"
           style="fill:#c1a355" /><path
           class="st33"
           d="m 468.3,249.9 -0.4,2.7 -1.1,0.2 1.4,-8.6 1.3,-0.2 4.2,7.7 -1.1,0.2 -1.3,-2.4 z m 2.5,-1.3 -1.2,-2.2 c -0.3,-0.5 -0.5,-1 -0.7,-1.4 v 0 c 0,0.5 -0.1,1 -0.2,1.5 l -0.4,2.5 z"
           id="path247"
           inkscape:connector-curvature="0"
           style="fill:#c1a355" /><path
           class="st33"
           d="m 474.4,250.2 c 0.5,0.2 1.3,0.3 2,0.2 1.1,-0.2 1.6,-0.9 1.5,-1.7 -0.1,-0.8 -0.6,-1.1 -1.8,-1.4 -1.4,-0.2 -2.4,-0.8 -2.5,-1.9 -0.2,-1.3 0.7,-2.4 2.3,-2.7 0.8,-0.1 1.5,-0.1 1.9,0.1 l -0.1,0.9 c -0.3,-0.1 -0.9,-0.2 -1.6,-0.1 -1.1,0.2 -1.4,0.9 -1.3,1.5 0.1,0.8 0.7,1.1 1.9,1.3 1.5,0.3 2.3,0.8 2.5,2 0.2,1.3 -0.5,2.5 -2.5,2.8 -0.8,0.1 -1.7,0 -2.2,-0.2 z"
           id="path249"
           inkscape:connector-curvature="0"
           style="fill:#c1a355" /><path
           class="st33"
           d="m 480.4,249.2 c 0.5,0.2 1.3,0.3 2,0.2 1.1,-0.2 1.6,-0.9 1.5,-1.7 -0.1,-0.8 -0.6,-1.1 -1.8,-1.4 -1.4,-0.2 -2.4,-0.8 -2.5,-1.9 -0.2,-1.3 0.7,-2.4 2.3,-2.7 0.8,-0.1 1.5,0 1.9,0.1 l -0.1,0.9 c -0.3,-0.1 -0.9,-0.2 -1.6,-0.1 -1.1,0.2 -1.4,0.9 -1.3,1.5 0.1,0.8 0.7,1.1 1.9,1.3 1.5,0.3 2.3,0.8 2.5,2 0.2,1.3 -0.5,2.5 -2.5,2.8 -0.8,0.1 -1.7,0 -2.2,-0.2 z"
           id="path251"
           inkscape:connector-curvature="0"
           style="fill:#c1a355" /><path
           class="st33"
           d="m 485.4,241.4 c 0.5,-0.2 1.1,-0.4 2,-0.5 1,-0.2 1.8,-0.1 2.4,0.3 0.5,0.3 0.9,0.9 1,1.6 0.1,0.7 0,1.4 -0.3,1.9 -0.5,0.7 -1.3,1.1 -2.3,1.3 -0.3,0.1 -0.6,0.1 -0.9,0.1 l 0.6,3.3 -1.1,0.2 z m 1.7,3.7 c 0.2,0 0.5,0 0.9,-0.1 1.3,-0.2 1.9,-1 1.8,-2.1 -0.2,-1.1 -1,-1.5 -2.2,-1.3 -0.5,0.1 -0.8,0.2 -1,0.3 z"
           id="path253"
           inkscape:connector-curvature="0"
           style="fill:#c1a355" /><path
           class="st33"
           d="m 499.5,243 c 0.5,2.8 -1,4.6 -3.1,4.9 -2.2,0.4 -4,-1 -4.4,-3.5 -0.4,-2.6 0.9,-4.6 3.1,-4.9 2.2,-0.4 4,1.1 4.4,3.5 z m -6.3,1.2 c 0.3,1.7 1.5,3.1 3.2,2.9 1.7,-0.3 2.4,-2 2,-3.8 -0.3,-1.6 -1.4,-3.2 -3.2,-2.9 -1.7,0.2 -2.3,2 -2,3.8 z"
           id="path255"
           inkscape:connector-curvature="0"
           style="fill:#c1a355" /><path
           class="st33"
           d="m 500.2,238.9 c 0.5,-0.2 1.3,-0.4 2,-0.5 1.1,-0.2 1.9,-0.1 2.5,0.3 0.5,0.3 0.8,0.8 0.9,1.4 0.2,1.1 -0.4,1.9 -1.2,2.3 v 0 c 0.7,0.1 1.1,0.6 1.5,1.4 0.5,1.1 0.8,1.8 1,2.1 l -1.1,0.2 c -0.2,-0.2 -0.5,-0.9 -0.9,-1.9 -0.4,-1.1 -0.9,-1.4 -1.9,-1.3 l -1,0.2 0.6,3.5 -1.1,0.2 z m 1.7,3.5 1.1,-0.2 c 1.1,-0.2 1.7,-0.9 1.6,-1.9 -0.2,-1.1 -1,-1.4 -2.1,-1.2 -0.5,0.1 -0.9,0.2 -1,0.3 z"
           id="path257"
           inkscape:connector-curvature="0"
           style="fill:#c1a355" /><path
           class="st33"
           d="m 508.5,238.3 -2.5,0.4 -0.2,-0.9 6,-1 0.2,0.9 -2.5,0.4 1.2,7.3 -1.1,0.2 z"
           id="path259"
           inkscape:connector-curvature="0"
           style="fill:#c1a355" /></g></g></g><text
     xml:space="preserve"
     style="font-style:normal;font-variant:normal;font-weight:normal;font-stretch:normal;font-size:8px;line-height:1.25;font-family:'Marker Felt';-inkscape-font-specification:'Marker Felt';letter-spacing:0px;word-spacing:0px;fill:#ffffff;fill-opacity:1;stroke:none;stroke-width:0.35132554"
     x="87.237564"
     y="502.33722"
     id="text1081"
     transform="scale(0.96669746,1.0344498)"><tspan
       sodipodi:role="line"
       id="tspan1079"
       x="87.237564"
       y="502.33722"
       style="font-style:normal;font-variant:normal;font-weight:normal;font-stretch:normal;font-size:8px;font-family:'Marker Felt';-inkscape-font-specification:'Marker Felt';stroke-width:0.35132554">INF554 Project - Undefined</tspan></text>
<text
     xml:space="preserve"
     style="font-style:normal;font-variant:normal;font-weight:normal;font-stretch:normal;font-size:16px;line-height:1.25;font-family:'Marker Felt';-inkscape-font-specification:'Marker Felt';letter-spacing:0px;word-spacing:0px;fill:#ffffff;fill-opacity:1;stroke:none;stroke-width:0.46897116;"
     x="106.64838"
     y="526.78497"
     id="text4775"
     transform="scale(1.0350851,0.96610413)"><tspan
       sodipodi:role="line"
       id="tspan4773"
       x="106.64838"
       y="526.78497"
       style="font-style:normal;font-variant:normal;font-weight:normal;font-stretch:normal;font-family:'Marker Felt';-inkscape-font-specification:'Marker Felt';stroke-width:0.46897116;font-size:16px;">title</tspan></text>
<text
     xml:space="preserve"
     style="font-style:normal;font-variant:normal;font-weight:normal;font-stretch:normal;font-size:137.33332825px;line-height:1.25;font-family:'Marker Felt';-inkscape-font-specification:'Marker Felt';letter-spacing:0px;word-spacing:0px;fill:#000000;fill-opacity:1;stroke:none"
     x="36.328979"
     y="589.87433"
     id="text4783"><tspan
       sodipodi:role="line"
       id="tspan4781"
       x="36.328979"
       y="716.90765" /></text>
<text
     xml:space="preserve"
     style="font-style:normal;font-variant:normal;font-weight:normal;font-stretch:normal;font-size:5.33333349px;line-height:1.25;font-family:'Marker Felt';-inkscape-font-specification:'Marker Felt';letter-spacing:0px;word-spacing:0px;fill:#ffffff;fill-opacity:1;stroke:none;stroke-width:0.11056235"
     x="91.927559"
     y="517.20929"
     id="text4787"
     transform="scale(0.9704983,1.0303985)"><tspan
       sodipodi:role="line"
       id="tspan4785"
       x="91.927559"
       y="517.20929"
       style="font-style:normal;font-variant:normal;font-weight:normal;font-stretch:normal;font-size:5.33333349px;font-family:'Marker Felt';-inkscape-font-specification:'Marker Felt';stroke-width:0.11056235">WeiFan Chen         weifanch@usc.edu</tspan><tspan
       sodipodi:role="line"
       x="91.927559"
       y="523.87598"
       id="tspan4791"
       style="font-style:normal;font-variant:normal;font-weight:normal;font-stretch:normal;font-size:5.33333349px;font-family:'Marker Felt';-inkscape-font-specification:'Marker Felt';stroke-width:0.11056235">YenChen Chou        yenchenc@usc.edu</tspan><tspan
       sodipodi:role="line"
       x="91.927559"
       y="530.5426"
       id="tspan4795"
       style="font-style:normal;font-variant:normal;font-weight:normal;font-stretch:normal;font-size:5.33333349px;font-family:'Marker Felt';-inkscape-font-specification:'Marker Felt';stroke-width:0.11056235"> Runze Liu              runxeliu@usc.edu</tspan></text>
<text
     xml:space="preserve"
     style="font-style:normal;font-variant:normal;font-weight:normal;font-stretch:normal;font-size:8px;line-height:1.25;font-family:'Marker Felt';-inkscape-font-specification:'Marker Felt';letter-spacing:0px;word-spacing:0px;fill:#784421;fill-opacity:1;stroke:none;stroke-width:0.46203247"
     x="78.795013"
     y="314.04803"
     id="text4799"
     transform="scale(1.0872113,0.91978441)"><tspan
       sodipodi:role="line"
       id="tspan4797"
       x="78.795013"
       y="314.04803"
       style="font-size:8px;fill:#784421;stroke-width:0.46203247">Outline</tspan></text>
<text
     xml:space="preserve"
     style="font-style:normal;font-variant:normal;font-weight:normal;font-stretch:normal;font-size:10.66666698px;line-height:1.25;font-family:'Marker Felt';-inkscape-font-specification:'Marker Felt';letter-spacing:0px;word-spacing:0px;fill:#f9f9f9;fill-opacity:1;stroke:none"
     x="156.36438"
     y="79.401184"
     id="text4824"><tspan
       sodipodi:role="line"
       id="tspan4822"
       x="156.36438"
       y="79.401184">Motivation</tspan></text>
<text
     xml:space="preserve"
     style="font-style:normal;font-variant:normal;font-weight:normal;font-stretch:normal;font-size:8.63323689px;line-height:1.25;font-family:'Marker Felt';-inkscape-font-specification:'Marker Felt';letter-spacing:0px;word-spacing:0px;fill:#ffffff;fill-opacity:1;stroke:none;stroke-width:0.64749277"
     x="215.93289"
     y="304.22531"
     id="text4828"
     transform="matrix(1.2058629,-0.23439597,0.15532718,0.79908914,0,0)"><tspan
       sodipodi:role="line"
       id="tspan4826"
       x="215.93289"
       y="304.22531"
       style="font-size:6.66666651px;stroke-width:0.64749277">Goal</tspan></text>
<text
     xml:space="preserve"
     style="font-style:normal;font-weight:normal;font-size:10.66666698px;line-height:1.25;font-family:sans-serif;letter-spacing:0px;word-spacing:0px;fill:#000000;fill-opacity:1;stroke:none;stroke-width:0.63466156"
     x="477.24094"
     y="158.82367"
     id="text4832"
     transform="matrix(0.95211469,0.4674875,-0.37938752,0.86401468,0,0)"><tspan
       sodipodi:role="line"
       id="tspan4830"
       x="477.24094"
       y="158.82367"
       style="font-style:normal;font-variant:normal;font-weight:normal;font-stretch:normal;font-size:10.66666698px;font-family:'Marker Felt';-inkscape-font-specification:'Marker Felt';fill:#ffffff;stroke-width:0.63466156">Data</tspan></text>
<text
     transform="matrix(1.0480665,-0.1631672,0.1848024,0.92536716,0,0)"
     id="text4878"
     y="259.29312"
     x="535.17291"
     style="font-style:normal;font-weight:normal;font-size:8.46215343px;line-height:1.25;font-family:sans-serif;letter-spacing:0px;word-spacing:0px;fill:#000000;fill-opacity:1;stroke:none;stroke-width:0.63466156"
     xml:space="preserve"><tspan
       style="font-style:normal;font-variant:normal;font-weight:normal;font-stretch:normal;font-family:'Marker Felt';-inkscape-font-specification:'Marker Felt';fill:#ffffff;stroke-width:0.63466156"
       y="266.78015"
       x="535.17291"
       id="tspan4876"
       sodipodi:role="line" /></text>
<text
     xml:space="preserve"
     style="font-style:normal;font-weight:normal;font-size:8.46215343px;line-height:1.25;font-family:sans-serif;letter-spacing:0px;word-spacing:0px;fill:#000000;fill-opacity:1;stroke:none;stroke-width:0.63466156"
     x="535.17291"
     y="259.29312"
     id="text4893"
     transform="matrix(1.0480665,-0.1631672,0.1848024,0.92536716,0,0)"><tspan
       sodipodi:role="line"
       id="tspan4891"
       x="535.17291"
       y="266.78015"
       style="font-style:normal;font-variant:normal;font-weight:normal;font-stretch:normal;font-family:'Marker Felt';-inkscape-font-specification:'Marker Felt';fill:#ffffff;stroke-width:0.63466156" /></text>
<text
     xml:space="preserve"
     style="font-style:normal;font-weight:normal;font-size:8px;line-height:1.25;font-family:sans-serif;letter-spacing:0px;word-spacing:0px;fill:#000000;fill-opacity:1;stroke:none;"
     x="55.517902"
     y="300.28275"
     id="text970"><tspan
       sodipodi:role="line"
       id="tspan968"
       x="55.517902"
       y="312.07962" /></text>
<text
     xml:space="preserve"
     style="font-style:normal;font-variant:normal;font-weight:normal;font-stretch:normal;font-size:5.33333349px;line-height:1.25;font-family:'Marker Felt';-inkscape-font-specification:'Marker Felt';letter-spacing:0px;word-spacing:0px;fill:#784421;fill-opacity:1;stroke:none"
     x="69.263298"
     y="297.30814"
     id="text974"><tspan
       sodipodi:role="line"
       id="tspan972"
       x="69.263298"
       y="297.30814">1. Motivation</tspan><tspan
       sodipodi:role="line"
       x="69.263298"
       y="303.97479"
       id="tspan976">2. Goal</tspan><tspan
       sodipodi:role="line"
       x="69.263298"
       y="310.64148"
       id="tspan978">3. Approach</tspan><tspan
       sodipodi:role="line"
       x="69.263298"
       y="317.30814"
       id="tspan980">4. Timeline</tspan></text>
<text
     xml:space="preserve"
     style="font-style:normal;font-variant:normal;font-weight:normal;font-stretch:normal;font-size:10.66666698px;line-height:1.25;font-family:'Marker Felt';-inkscape-font-specification:'Marker Felt';letter-spacing:0px;word-spacing:0px;fill:#ffffff;fill-opacity:1;stroke:none"
     x="692.64496"
     y="-116.41277"
     id="text4673"
     transform="rotate(25)"><tspan
       sodipodi:role="line"
       id="tspan4671"
       x="692.64496"
       y="-116.41277">Approach</tspan></text>
<text
     xml:space="preserve"
     style="font-style:normal;font-variant:normal;font-weight:normal;font-stretch:normal;font-size:10.66666698px;line-height:1.25;font-family:'Marker Felt';-inkscape-font-specification:'Marker Felt';letter-spacing:0px;word-spacing:0px;fill:#ffffff;fill-opacity:1;stroke:none"
     x="779.49432"
     y="-117.44103"
     id="text4677"
     transform="rotate(25)"><tspan
       sodipodi:role="line"
       id="tspan4675"
       x="779.49432"
       y="-117.44103">Approach</tspan></text>
<text
     xml:space="preserve"
     style="font-style:normal;font-variant:normal;font-weight:normal;font-stretch:normal;font-size:5.68019295px;line-height:1.25;font-family:'Marker Felt';-inkscape-font-specification:'Marker Felt';letter-spacing:0px;word-spacing:0px;fill:#484537;fill-opacity:1;stroke:none;stroke-width:0.53251809"
     x="61.092525"
     y="413.53857"
     id="text4681"
     transform="matrix(0.74309743,-0.65282657,0.50187456,0.9048113,0,0)"><tspan
       sodipodi:role="line"
       id="tspan4679"
       x="61.092525"
       y="413.53857"
       style="fill:#484537;stroke-width:0.53251809">TImeline</tspan></text>
<g
     id="g6923"
     transform="matrix(0.02784726,-0.02434195,0.03960613,0.04916938,256.46,338.34934)"><g
       id="g6883"
       style="fill:#f7cc38"><path
         id="path6873"
         d="m 216,440 h -56 c -4.41797,0 -8,-3.58203 -8,-8 0,-4.41797 3.58203,-8 8,-8 h 56 c 4.41797,0 8,3.58203 8,8 0,4.41797 -3.58203,8 -8,8 z m 0,0"
         inkscape:connector-curvature="0" /><path
         id="path6875"
         d="m 304,312 h -56 c -4.41797,0 -8,-3.58203 -8,-8 0,-4.41797 3.58203,-8 8,-8 h 56 c 4.41797,0 8,3.58203 8,8 0,4.41797 -3.58203,8 -8,8 z m 0,0"
         inkscape:connector-curvature="0" /><path
         id="path6877"
         d="m 304,56 h -56 c -4.41797,0 -8,-3.582031 -8,-8 0,-4.417969 3.58203,-8 8,-8 h 56 c 4.41797,0 8,3.582031 8,8 0,4.417969 -3.58203,8 -8,8 z m 0,0"
         inkscape:connector-curvature="0" /><path
         id="path6879"
         d="m 216,184 h -56 c -4.41797,0 -8,-3.58203 -8,-8 0,-4.41797 3.58203,-8 8,-8 h 56 c 4.41797,0 8,3.58203 8,8 0,4.41797 -3.58203,8 -8,8 z m 0,0"
         inkscape:connector-curvature="0" /><path
         id="path6881"
         d="m 232,480 c -4.41797,0 -8,-3.58203 -8,-8 V 8 c 0,-4.417969 3.58203,-8 8,-8 4.41797,0 8,3.582031 8,8 v 464 c 0,4.41797 -3.58203,8 -8,8 z m 0,0"
         inkscape:connector-curvature="0" /></g><path
       id="path6885"
       d="m 248,48 c 0,8.835938 -7.16406,16 -16,16 -8.83594,0 -16,-7.164062 -16,-16 0,-8.835938 7.16406,-16 16,-16 8.83594,0 16,7.164062 16,16 z m 0,0"
       inkscape:connector-curvature="0"
       style="fill:#ef7559" /><path
       id="path6887"
       d="m 248,304 c 0,8.83594 -7.16406,16 -16,16 -8.83594,0 -16,-7.16406 -16,-16 0,-8.83594 7.16406,-16 16,-16 8.83594,0 16,7.16406 16,16 z m 0,0"
       inkscape:connector-curvature="0"
       style="fill:#ef7559" /><path
       id="path6889"
       d="m 248,176 c 0,8.83594 -7.16406,16 -16,16 -8.83594,0 -16,-7.16406 -16,-16 0,-8.83594 7.16406,-16 16,-16 8.83594,0 16,7.16406 16,16 z m 0,0"
       inkscape:connector-curvature="0"
       style="fill:#ef7559" /><path
       id="path6891"
       d="m 248,432 c 0,8.83594 -7.16406,16 -16,16 -8.83594,0 -16,-7.16406 -16,-16 0,-8.83594 7.16406,-16 16,-16 8.83594,0 16,7.16406 16,16 z m 0,0"
       inkscape:connector-curvature="0"
       style="fill:#ef7559" /><path
       id="path6893"
       d="M 304,16 H 464 V 144 H 304 Z m 0,0"
       inkscape:connector-curvature="0"
       style="fill:#8cb28c" /><path
       id="path6895"
       d="M 304,240 H 464 V 368 H 304 Z m 0,0"
       inkscape:connector-curvature="0"
       style="fill:#8cb28c" /><path
       id="path6897"
       d="M 160,240 H 0 V 112 h 160 z m 0,0"
       inkscape:connector-curvature="0"
       style="fill:#8cb28c" /><path
       id="path6899"
       d="M 160,464 H 0 V 336 h 160 z m 0,0"
       inkscape:connector-curvature="0"
       style="fill:#8cb28c" /></g><text
     xml:space="preserve"
     style="font-style:normal;font-variant:normal;font-weight:normal;font-stretch:normal;font-size:2.66666675px;line-height:1.25;font-family:'Marker Felt';-inkscape-font-specification:'Marker Felt';letter-spacing:0px;word-spacing:0px;fill:#ffffff;fill-opacity:1;stroke:none"
     x="260.444"
     y="254.39304"
     id="text6927"
     transform="rotate(-10)"><tspan
       sodipodi:role="line"
       id="tspan6925"
       x="260.444"
       y="254.39304">1. Find key factors that affect renting price</tspan><tspan
       sodipodi:role="line"
       x="260.444"
       y="257.72638"
       id="tspan6931" /><tspan
       sodipodi:role="line"
       x="260.444"
       y="261.05969"
       id="tspan6929">2. Assist hosts to determine business market position   </tspan></text>
<text
     xml:space="preserve"
     style="font-style:normal;font-variant:normal;font-weight:normal;font-stretch:normal;font-size:5.33333349px;line-height:1.25;font-family:'Marker Felt';-inkscape-font-specification:'Marker Felt';letter-spacing:0px;word-spacing:0px;fill:#ffffff;fill-opacity:1;stroke:none"
     x="116.66976"
     y="91.122269"
     id="text6935"><tspan
       sodipodi:role="line"
       id="tspan6933"
       x="116.66976"
       y="91.122269">1. Want to find the best place to stay with the lowest price </tspan><tspan
       sodipodi:role="line"
       x="116.66976"
       y="97.788933"
       id="tspan6939" /><tspan
       sodipodi:role="line"
       x="116.66976"
       y="104.4556"
       id="tspan6937">2. Want to compare different home features over similar price  </tspan></text>
<text
     xml:space="preserve"
     style="font-style:normal;font-variant:normal;font-weight:normal;font-stretch:normal;font-size:5.33333349px;line-height:1.25;font-family:'Marker Felt';-inkscape-font-specification:'Marker Felt';letter-spacing:0px;word-spacing:0px;fill:#ffffff;fill-opacity:1;stroke:none"
     x="396.25464"
     y="381.27081"
     id="text6945"><tspan
       sodipodi:role="line"
       x="396.25464"
       y="381.27081"
       id="tspan6953">1. Airbnb open data focus on 8 cities in California </tspan><tspan
       sodipodi:role="line"
       x="396.25464"
       y="387.93747"
       id="tspan6957">2. Important features:</tspan><tspan
       sodipodi:role="line"
       x="396.25464"
       y="394.60413"
       id="tspan6959">     (1) price</tspan><tspan
       sodipodi:role="line"
       x="396.25464"
       y="401.27081"
       id="tspan6961">     (2) rating</tspan><tspan
       sodipodi:role="line"
       x="396.25464"
       y="407.93747"
       id="tspan6965">     (3) location</tspan></text>
<text
     xml:space="preserve"
     style="font-style:normal;font-variant:normal;font-weight:normal;font-stretch:normal;font-size:5.33333349px;line-height:1.25;font-family:'Marker Felt';-inkscape-font-specification:'Marker Felt';letter-spacing:0px;word-spacing:0px;fill:#ffffff;fill-opacity:1;stroke:none"
     x="622.03955"
     y="229.96703"
     id="text6971"><tspan
       sodipodi:role="line"
       id="tspan6969"
       x="622.03955"
       y="229.96703">1. Analyze relationships between price, rating, location</tspan><tspan
       sodipodi:role="line"
       x="622.03955"
       y="236.6337"
       id="tspan6973">2. Find out what features might affect the price</tspan><tspan
       sodipodi:role="line"
       x="622.03955"
       y="243.30035"
       id="tspan6975">3. Discover insights based on the previous results</tspan></text>
<text
     transform="rotate(25)"
     id="text7000"
     y="-114.90569"
     x="609.42664"
     style="font-style:normal;font-variant:normal;font-weight:normal;font-stretch:normal;font-size:10.66666698px;line-height:1.25;font-family:'Marker Felt';-inkscape-font-specification:'Marker Felt';letter-spacing:0px;word-spacing:0px;fill:#ffffff;fill-opacity:1;stroke:none"
     xml:space="preserve"><tspan
       y="-114.90569"
       x="609.42664"
       id="tspan6998"
       sodipodi:role="line">Approach</tspan></text>
<text
     id="text7008"
     y="198.09657"
     x="550.33105"
     style="font-style:normal;font-variant:normal;font-weight:normal;font-stretch:normal;font-size:5.33333349px;line-height:1.25;font-family:'Marker Felt';-inkscape-font-specification:'Marker Felt';letter-spacing:0px;word-spacing:0px;fill:#ffffff;fill-opacity:1;stroke:none"
     xml:space="preserve"><tspan
       y="198.09657"
       x="550.33105"
       id="tspan7002"
       sodipodi:role="line">1. Analyze relationships between price, rating, location</tspan><tspan
       id="tspan7004"
       y="204.76324"
       x="550.33105"
       sodipodi:role="line">2. Find out what features might affect the price</tspan><tspan
       id="tspan7006"
       y="211.4299"
       x="550.33105"
       sodipodi:role="line">3. Discover insights based on the previous results</tspan></text>
<text
     xml:space="preserve"
     style="font-style:normal;font-variant:normal;font-weight:normal;font-stretch:normal;font-size:5.33333349px;line-height:1.25;font-family:'Marker Felt';-inkscape-font-specification:'Marker Felt';letter-spacing:0px;word-spacing:0px;fill:#ffffff;fill-opacity:1;stroke:none"
     x="710.18127"
     y="261.33951"
     id="text7016"><tspan
       sodipodi:role="line"
       id="tspan7010"
       x="710.18127"
       y="261.33951">1. Analyze relationships between price, rating, location</tspan><tspan
       sodipodi:role="line"
       x="710.18127"
       y="268.00616"
       id="tspan7012">2. Find out what features might affect the price</tspan><tspan
       sodipodi:role="line"
       x="710.18127"
       y="274.67282"
       id="tspan7014">3. Discover insights based on the previous results</tspan></text>
<text
     xml:space="preserve"
     style="font-style:normal;font-variant:normal;font-weight:normal;font-stretch:normal;font-size:5.33333349px;line-height:1.25;font-family:'Marker Felt';-inkscape-font-specification:'Marker Felt';letter-spacing:0px;word-spacing:0px;fill:#000000;fill-opacity:1;stroke:none"
     x="646.62146"
     y="409.55908"
     id="text7020"><tspan
       sodipodi:role="line"
       id="tspan7018"
       x="646.62146"
       y="409.55908">Tools:</tspan><tspan
       sodipodi:role="line"
       x="646.62146"
       y="416.22574"
       id="tspan7022">1. Python: </tspan><tspan
       sodipodi:role="line"
       x="646.62146"
       y="422.89243"
       id="tspan7028">     (1) Data preprocessing</tspan><tspan
       sodipodi:role="line"
       x="646.62146"
       y="429.55908"
       id="tspan7030">     (2) Data cleaning</tspan><tspan
       sodipodi:role="line"
       x="646.62146"
       y="436.22574"
       id="tspan7024">2. D3:</tspan><tspan
       sodipodi:role="line"
       x="646.62146"
       y="442.89243"
       id="tspan7034">     (1) Data Visualization</tspan><tspan
       sodipodi:role="line"
       x="646.62146"
       y="449.55908"
       id="tspan7026">3.  HTML/CSS/Javacsript:</tspan><tspan
       sodipodi:role="line"
       x="646.62146"
       y="456.22574"
       id="tspan7038">     (1) result representation</tspan></text>
</svg>